<svg xmlns="http://www.w3.org/2000/svg" viewBox="0 0 192 192">
  <defs>
    <radialGradient id="bg" cx="50%" cy="30%" r="75%">
      <stop offset="0%" stop-color="#1e2f5f"/>
      <stop offset="100%" stop-color="#0a0f1f"/>
    </radialGradient>
    <radialGradient id="crust" cx="45%" cy="35%" r="70%">
      <stop offset="0%" stop-color="#ffd38c"/>
      <stop offset="100%" stop-color="#d6863d"/>
    </radialGradient>
    <radialGradient id="sauce" cx="50%" cy="40%" r="70%">
      <stop offset="0%" stop-color="#ff5b37"/>
      <stop offset="100%" stop-color="#d9311f"/>
    </radialGradient>
    <radialGradient id="cheese" cx="40%" cy="35%" r="70%">
      <stop offset="0%" stop-color="#fffef7"/>
      <stop offset="100%" stop-color="#f4e8bd"/>
    </radialGradient>
  </defs>

  <rect width="192" height="192" rx="42" fill="url(#bg)"/>

  <circle cx="96" cy="96" r="78" fill="url(#crust)"/>
  <circle cx="96" cy="96" r="63" fill="url(#sauce)"/>

  <circle cx="72" cy="79" r="14" fill="url(#cheese)"/>
  <circle cx="111" cy="73" r="13" fill="url(#cheese)"/>
  <circle cx="121" cy="109" r="15" fill="url(#cheese)"/>
  <circle cx="84" cy="121" r="16" fill="url(#cheese)"/>
  <circle cx="55" cy="107" r="12" fill="url(#cheese)"/>

  <ellipse cx="96" cy="96" rx="12" ry="8" fill="#49a84f"/>
  <ellipse cx="87" cy="89" rx="8" ry="5" fill="#55bf5b" transform="rotate(-18 87 89)"/>
  <ellipse cx="106" cy="87" rx="8" ry="5" fill="#55bf5b" transform="rotate(18 106 87)"/>
  <ellipse cx="88" cy="104" rx="8" ry="5" fill="#55bf5b" transform="rotate(18 88 104)"/>
  <ellipse cx="104" cy="104" rx="8" ry="5" fill="#55bf5b" transform="rotate(-20 104 104)"/>

  <circle cx="47" cy="60" r="3.5" fill="#8c4d1f" opacity=".8"/>
  <circle cx="141" cy="51" r="3" fill="#8c4d1f" opacity=".75"/>
  <circle cx="149" cy="132" r="4" fill="#8c4d1f" opacity=".8"/>
  <circle cx="52" cy="141" r="3.5" fill="#8c4d1f" opacity=".7"/>
</svg>
